<svg xmlns="http://www.w3.org/2000/svg" viewBox="0 0 512 512">
  <rect width="512" height="512" rx="112" fill="#f3efeb"/>
  <circle cx="256" cy="256" r="164" fill="#c39da3" opacity="0.18"/>
  <path fill="#b9808a" d="M256 378c-12-11-39-33-67-59-47-43-77-76-77-119 0-43 33-76 76-76 25 0 50 12 68 34 18-22 43-34 68-34 43 0 76 33 76 76 0 43-30 76-77 119-28 26-55 48-67 59Z"/>
  <path fill="#ffffff" d="M256 340c-10-9-32-27-54-48-36-34-58-58-58-89 0-26 20-46 46-46 22 0 43 16 54 39h24c11-23 32-39 54-39 26 0 46 20 46 46 0 31-22 55-58 89-22 21-44 39-54 48Z" opacity="0.84"/>
</svg>
